<svg xmlns="http://www.w3.org/2000/svg" viewBox="0 0 1160 212" role="img" aria-labelledby="t d">
  <title id="t">SPECTRA / jarlelauch · LANGUAGE MASS</title>
  <desc id="d">Bytes of source per language across public repos.</desc>
  <defs><linearGradient id="bg" x1="0" y1="0" x2="1" y2="1"><stop offset="0" stop-color="#07070e"/><stop offset=".55" stop-color="#0d0a16"/><stop offset="1" stop-color="#06060b"/></linearGradient><linearGradient id="bar" x1="0" y1="0" x2="0" y2="1"><stop offset="0" stop-color="#e8b95c"/><stop offset="1" stop-color="#c0487e"/></linearGradient></defs>
  <rect width="1160" height="212" rx="14" fill="url(#bg)"/>
  <text x="30" y="44" font-size="13" fill="#e7d5ae">JavaScript</text><rect x="180" y="30" width="894.0" height="9" rx="4" fill="url(#bar)" opacity=".85"/><text x="1084" y="42" font-size="11" fill="#c0487e" opacity=".85">255 KB</text><text x="30" y="66" font-size="13" fill="#e7d5ae">Python</text><rect x="180" y="52" width="442.6" height="9" rx="4" fill="url(#bar)" opacity=".85"/><text x="633" y="64" font-size="11" fill="#c0487e" opacity=".85">126 KB</text><text x="30" y="88" font-size="13" fill="#e7d5ae">HTML</text><rect x="180" y="74" width="324.5" height="9" rx="4" fill="url(#bar)" opacity=".85"/><text x="514" y="86" font-size="11" fill="#c0487e" opacity=".85">93 KB</text><text x="30" y="110" font-size="13" fill="#e7d5ae">CSS</text><rect x="180" y="96" width="62.1" height="9" rx="4" fill="url(#bar)" opacity=".85"/><text x="252" y="108" font-size="11" fill="#c0487e" opacity=".85">18 KB</text><text x="30" y="132" font-size="13" fill="#e7d5ae">PowerShell</text><rect x="180" y="118" width="7.0" height="9" rx="4" fill="url(#bar)" opacity=".85"/><text x="197" y="130" font-size="11" fill="#c0487e" opacity=".85">1 KB</text><text x="30" y="154" font-size="13" fill="#e7d5ae">Dockerfile</text><rect x="180" y="140" width="7.0" height="9" rx="4" fill="url(#bar)" opacity=".85"/><text x="197" y="152" font-size="11" fill="#c0487e" opacity=".85">399 B</text><text x="30" y="176" font-size="13" fill="#e7d5ae">Procfile</text><rect x="180" y="162" width="7.0" height="9" rx="4" fill="url(#bar)" opacity=".85"/><text x="197" y="174" font-size="11" fill="#c0487e" opacity=".85">60 B</text><text x="30" y="186" font-size="10" fill="#c0487e" opacity=".9">TOTAL MASS 493 KB · TOP 7 LANGUAGES</text>
  <text x="30" y="21" font-size="12" fill="#e8b95c" font-family="Georgia,serif">SPECTRA / jarlelauch · LANGUAGE MASS</text>
  <text x="1134" y="21" font-size="10" fill="#c0487e" text-anchor="end" font-family="Georgia,serif">EVENT-HORIZON TELEMETRY</text>
  <text x="580.0" y="200" font-size="9" fill="#c0487e" text-anchor="middle" opacity=".8">AUTO-REFRESHED DAILY BY GITHUB ACTIONS · 2026-09-10 UTC</text>
</svg>
